<svg xmlns="http://www.w3.org/2000/svg" xmlns:xlink="http://www.w3.org/1999/xlink" width="356.116" height="420.105" viewBox="0 0 356.116 420.105"><defs><style>.a{fill:url(#a);}.b{fill:url(#b);}.c{fill:url(#c);}.d{fill:url(#e);}.e{fill:url(#f);}.f{fill:url(#g);}.g{fill:url(#h);}.h{fill:#d8bfff;}.i{fill:url(#k);}.j{fill:url(#p);}.k{fill:none;stroke:#fff;stroke-width:5px;}.l{fill:url(#q);}.m{fill:url(#r);}.n{fill:url(#u);}.o{fill:url(#w);}.p{fill:url(#aa);}.q{fill:url(#ab);}.r{fill:url(#ac);}.s{fill:url(#ad);}.t{fill:url(#ah);}</style><linearGradient id="a" x1="-0.065" y1="0.382" x2="1.109" y2="0.522" gradientUnits="objectBoundingBox"><stop offset="0" stop-color="#439e9f"/><stop offset="1" stop-color="#cbfefa"/></linearGradient><linearGradient id="b" x1="-0.012" y1="0.327" x2="0.985" y2="0.577" gradientUnits="objectBoundingBox"><stop offset="0" stop-color="#bffdff"/><stop offset="1" stop-color="#68cacb"/></linearGradient><linearGradient id="c" x1="1" y1="0.5" x2="0" y2="0.5" gradientUnits="objectBoundingBox"><stop offset="0" stop-color="#e9fff8"/><stop offset="1" stop-color="#d4fff0"/></linearGradient><linearGradient id="e" x1="1" y1="0.5" x2="0" y2="0.5" gradientUnits="objectBoundingBox"><stop offset="0" stop-color="#d4fbff"/><stop offset="0.004" stop-color="#d4e9ff"/><stop offset="1" stop-color="#e9fffd"/></linearGradient><linearGradient id="f" x1="1.024" y1="0.5" x2="0" y2="0.5" gradientUnits="objectBoundingBox"><stop offset="0" stop-color="#d8bfff"/><stop offset="1" stop-color="#eadefe"/></linearGradient><linearGradient id="g" x1="1.062" y1="0.5" x2="0.029" y2="0.54" gradientUnits="objectBoundingBox"><stop offset="0" stop-color="#e7d8ff"/><stop offset="1" stop-color="#d8bfff"/></linearGradient><linearGradient id="h" x1="0.864" y1="0.5" x2="-1.099" y2="0.874" gradientUnits="objectBoundingBox"><stop offset="0" stop-color="#ccb7e9"/><stop offset="1" stop-color="#a585d1"/></linearGradient><linearGradient id="k" x1="1" y1="0.5" x2="0" y2="0.5" gradientUnits="objectBoundingBox"><stop offset="0" stop-color="#8a70b2" stop-opacity="0.502"/><stop offset="1" stop-color="#e9eaff"/></linearGradient><linearGradient id="p" x1="1" y1="0.5" x2="0" y2="0.5" gradientUnits="objectBoundingBox"><stop offset="0" stop-color="#e4d7f9"/><stop offset="1" stop-color="#d8bfff"/></linearGradient><linearGradient id="q" x1="0.5" y1="0.743" x2="1" y2="0.307" gradientUnits="objectBoundingBox"><stop offset="0" stop-color="#e3d1ff"/><stop offset="1" stop-color="#eee4ff"/></linearGradient><linearGradient id="r" x1="1" y1="0.5" x2="0" y2="0.5" gradientUnits="objectBoundingBox"><stop offset="0" stop-color="#dbbfff"/><stop offset="1" stop-color="#e9eaff"/></linearGradient><linearGradient id="u" x1="1.444" y1="0.118" x2="0.065" y2="0.54" gradientUnits="objectBoundingBox"><stop offset="0" stop-color="#d8bfff"/><stop offset="1" stop-color="#a585d1"/></linearGradient><linearGradient id="w" x1="1" y1="0.5" x2="0" y2="0.5" gradientUnits="objectBoundingBox"><stop offset="0" stop-color="#8ef2e4"/><stop offset="1" stop-color="#4a95d6"/></linearGradient><linearGradient id="aa" x1="0.937" y1="0.113" x2="0.109" y2="0.826" gradientUnits="objectBoundingBox"><stop offset="0" stop-color="#7e7e7e"/><stop offset="1" stop-color="#202121"/></linearGradient><linearGradient id="ab" x1="1" y1="0.5" x2="0" y2="0.5" gradientUnits="objectBoundingBox"><stop offset="0" stop-color="#ffbfeb"/><stop offset="1" stop-color="#fff"/></linearGradient><linearGradient id="ac" x1="1" y1="0.5" x2="0" y2="0.5" gradientUnits="objectBoundingBox"><stop offset="0" stop-color="#ffbfd4"/><stop offset="0.218" stop-color="#ff9acc"/><stop offset="0.699" stop-color="#ff3db7"/><stop offset="1" stop-color="#f0a"/></linearGradient><linearGradient id="ad" x1="1" y1="0.5" x2="0" y2="0.5" gradientUnits="objectBoundingBox"><stop offset="0.016" stop-color="#5556ff"/><stop offset="0.606" stop-color="#b0b1ff"/><stop offset="1" stop-color="#e9eaff"/></linearGradient><linearGradient id="ah" x1="0.994" y1="0.562" x2="0.006" y2="0.439" gradientUnits="objectBoundingBox"><stop offset="0" stop-color="#ffbfd4"/><stop offset="0.085" stop-color="#ff94cb"/><stop offset="0.178" stop-color="#ff6dc2"/><stop offset="0.277" stop-color="#ff4bbb"/><stop offset="0.383" stop-color="#ff30b4"/><stop offset="0.497" stop-color="#ff1ab0"/><stop offset="0.624" stop-color="#ff0bad"/><stop offset="0.773" stop-color="#ff03ab"/><stop offset="1" stop-color="#f0a"/></linearGradient></defs><g transform="translate(0)"><path class="a" d="M13.767,1.409A8.774,8.774,0,0,0,9.889,8.762c.058,4.986,3.848,10.506,3.848,10.506S6.19,16.38,2.438,10.809A14.96,14.96,0,0,1,.031,1.787L11.7,0Z" transform="translate(0 119.17)"/><path class="b" d="M124.615,36.828l-21.173,46-9.18-7.075s-5.778-18.146-17.437-33.17a67.548,67.548,0,0,1,8.718-6.666,39.453,39.453,0,0,0-8.679-.735c-3.947.224-5.454,1.16-5.454,1.16A45.854,45.854,0,0,0,54.552,24.92a109,109,0,0,0-14.2-4.052c.686-2.921,4.9-8.4,4.9-8.4a27.249,27.249,0,0,0-7.144,1.653A40.941,40.941,0,0,0,29.476,19,141.176,141.176,0,0,0,0,18.191c.856-.7,32.765-26.27,79.84-15.583C127.559,13.438,124.615,36.828,124.615,36.828Z" transform="translate(0.046 102.762)"/><path class="c" d="M92.078,54a.351.351,0,0,0,.294-.541c-.194-.3-19.726-30.156-43.827-44.5A64.516,64.516,0,0,0,.246,1.89a.351.351,0,0,0,.209.67,63.787,63.787,0,0,1,47.731,7c23.96,14.263,43.4,43.984,43.6,44.283A.353.353,0,0,0,92.078,54Z" transform="translate(29.935 109.277)"/><path class="c" d="M89.507,22.3a.351.351,0,0,0,.214-.629A103.562,103.562,0,0,0,28.75.03C11.98-.371.358,3.341.242,3.379a.351.351,0,1,0,.217.667C.574,4.008,12.106.324,28.762.733A102.86,102.86,0,0,1,89.294,22.224.348.348,0,0,0,89.507,22.3Z" transform="translate(13.417 149.865)"/><path class="d" d="M130.6.335c23.186-1.248,47.171.949,69.068,7.227,39.275,11.261,71.268,41.145,82.028,80.974,11.614,42.989-5.328,92.02-34.572,124.511-27.383,30.424-66.41,47.86-106.705,52.52-37.14,4.294-86.02-.258-117.819-22.093C7.677,233.225-3.129,213.357.82,195.171c6.822-31.417,42.025-39.735,66.056-53.468,9.639-5.508,22.858-15.629,22.743-27.863-.116-12.3-13.265-21.4-22.582-27.138-16.784-10.337-19.7-9.339-26.993-14.161-26.42-17.481-4.6-40.494,16.463-52.4C73.437,10.572,92.373,4.8,111.592,2.15,117.827,1.29,124.184.681,130.6.335Z" transform="translate(30.285 23.162)"/><path class="e" d="M10.031,20.062H84.874A10.031,10.031,0,0,0,94.9,10.031h0A10.031,10.031,0,0,0,84.874,0H10.031A10.031,10.031,0,0,0,0,10.031H0A10.031,10.031,0,0,0,10.031,20.062Z" transform="translate(261.212 73.126)"/><path class="f" d="M34.129,0,0,47.218l54.232-3.74L35.884,25.229Z" transform="translate(257.591)"/><path class="g" d="M0,25.909,38.763,6.783,35.884,3.92,35.611,0Z" transform="translate(257.591 21.309)"/><path class="g" d="M0,0,14.77,1.78,7,12.263.4,5.7Z" transform="translate(293.078 19.529)"/><path class="g" d="M14.374,0,0,3.92l6.6,6.564Z" transform="translate(293.474 21.309)"/><circle class="h" cx="18.116" cy="18.116" r="18.116" transform="matrix(-0.23, -0.973, 0.973, -0.23, 89.432, 94.954)"/><path class="h" d="M1.918,6.663h71.45a1.918,1.918,0,0,0,1.918-1.918V1.918A1.918,1.918,0,0,0,73.368,0H1.918A1.918,1.918,0,0,0,0,1.918V4.745A1.918,1.918,0,0,0,1.918,6.663Z" transform="translate(128.593 64.165)"/><path class="h" d="M1.154,4.007H74.132a1.154,1.154,0,0,0,1.154-1.154v-1.7A1.154,1.154,0,0,0,74.132,0H1.154A1.154,1.154,0,0,0,0,1.154v1.7A1.153,1.153,0,0,0,1.154,4.007Z" transform="translate(128.593 77.34)"/><rect class="i" width="158.019" height="1.403" transform="translate(132.999 117.183)"/><rect class="i" width="158.019" height="1.403" transform="translate(132.999 145.233)"/><rect class="i" width="158.019" height="1.403" transform="translate(132.999 173.285)"/><rect class="i" width="178.59" height="1.403" transform="translate(69.183 201.335)"/><rect class="i" width="178.59" height="1.403" transform="translate(69.183 229.386)"/><path class="j" d="M7.131,38.741h24.48a7.131,7.131,0,0,0,7.131-7.131V7.131A7.131,7.131,0,0,0,31.611,0H7.131A7.131,7.131,0,0,0,0,7.131v24.48A7.131,7.131,0,0,0,7.131,38.741Z" transform="translate(10.914 210.716)"/><path class="k" d="M8.725,17.224.18,8.651a.616.616,0,0,1,.872-.87L8.6,15.353,20.085.244a.616.616,0,1,1,.981.746Z" transform="translate(19.653 221.657)"/><path class="l" d="M20.049,2.9S21.782,5.016,22.217,14.6s.218,47.036-6.315,41.374S.223,20.477.006,12.638,6.05,0,6.05,0Z" transform="translate(161.03 363.554)"/><path class="m" d="M49.391,9.636A30.471,30.471,0,0,1,51.149,29.22c-4.1,16.224-38.1,79.945-38.336,85.087s-1.753,24.427-6.779,17.532c-5.952-8.166-7.48-16.714-4.675-31.557,10.65-56.357,26.415-60.075,21.505-71.529S8.6,0,8.6,0Z" transform="translate(166.237 260.637)"/><path class="m" d="M30.067,0s30.593,6.224,32.19,29.366c1.841,26.681,2.286,86.894,5.3,90.347s6.545,8.181,6.545,8.181-13.792-.935-16.831-3.74-7.364-6.9-7.364-6.9,3.74.993,1.812-9.7S45.762,56.139,38.711,33.69C36.007,25.081,0,17.093,0,17.093Z" transform="translate(210.84 217.13)"/><path class="m" d="M15.54,27.255s26.419-12.26,30.627-16.7S54-1.135,59.14.151s7.948,5.844,15.077,3.39S88.477-1.251,85.2,1.787s-15.077,7.364-16.246,10.4S65.685,20.253,59.14,20.6s-54.7,34.479-54.7,34.479L0,37.427Z" transform="translate(218.554 82.014)"/><path class="n" d="M38.624,0s32.1,15.073,31.045,20.615c-3.327,17.508-8.562,38.653-13.466,39.4-2.837.433-34.081-11.8-52.369-27.764S38.624,0,38.624,0Z" transform="translate(184.764 196.948)"/><path class="n" d="M49.492.236s4.181,15.9,12.83,26.415,14.726,13.792,4.442,18S21.415,61.947,20.012,55.4,16.039,35.463,9.494,28.719-1.727,18,.611,7.95,49.492.236,49.492.236Z" transform="translate(151.323 224.637)"/><path class="o" d="M0,4.174s11.21.641,19.39.26C24.632,4.19,35.4,0,35.4,0l4.442,22.674s-11.1,7.13-23.726,8.181S0,4.174,0,4.174Z" transform="translate(185.255 115.007)"/><path class="o" d="M20.037,3.141a13.03,13.03,0,0,1-8.542,3.391C5.937,6.766-1.014,4.428.124,13.545S5.47,66.374,6.872,75.257-2.244,116.865,2.2,119.9s37.635,8.181,57.738-13.792,32.025-32.726,23.843-38.8A60.69,60.69,0,0,1,65.078,45.1c-4.208-8.649-9.7-33.486-13.558-37.518S41.118,3.9,38.138.922,20.037,3.141,20.037,3.141Z" transform="translate(143.425 116.19)"/><path class="m" d="M21.261,14.285s-.69,1.961,1.413,8.506,6.428,18.467,0,18.35S2.337,27.818,1.052,22.909s1.052-10.87,0-14.376A36.233,36.233,0,0,1,0,0Z" transform="translate(162.803 100.281)"/><path class="m" d="M37.454,8.882a53.331,53.331,0,0,1,6.779,25.012c.234,14.493-1.169,18-8.883,14.96S8.7,37.868,3.091,31.089,1.221,14.96,1.221,14.96L15.948,0Z" transform="translate(154.919 68.257)"/><path class="p" d="M43.257.412a.516.516,0,0,1,.961-.138c2.6,4.935,10.468,21.043,2.852,21.834-9,.935-17.649-4.208-18.934,0s3.617,9.452,2.046,13.675c-1.4,3.769-4.617,4.442-3.623,1.987s-2.22-6.983-5.376-5.931-4.821,6.048-2.279,8.327,8.268,5.341,6.925,11.308c-1.578,7.013-4.191,11.942-5.856,9.751s-2.3-6.858-6.942-9.488S1.313,43.789.32,35.081C-.927,24.15,1.276,14.272,10.372,8.433c6.692-4.3,12.353-5.549,18.7-3.974C35.291,6,39.592,6.679,41.579,3.991A9.729,9.729,0,0,0,43.257.412Z" transform="translate(143.55 56.784)"/><path class="q" d="M0,35.758c0,.112.267.2.736.287C1.122,32.532,4.4,8.429,5.246,2.16A1.7,1.7,0,0,1,6.95.7l17.476.421a1.656,1.656,0,0,1,.744.2,1.668,1.668,0,0,0-1.445-.9L6.249,0a1.7,1.7,0,0,0-1.7,1.459C3.64,8.121,0,34.938,0,35.758Z" transform="translate(208.89 97.125)"/><path class="r" d="M0,35.344c2.847.526,13.2.624,16.992.645a1.685,1.685,0,0,0,1.655-1.381L24.6,1.7a1.659,1.659,0,0,0-.168-1.08,1.646,1.646,0,0,0-.744-.2L6.212,0a1.7,1.7,0,0,0-1.7,1.459C3.661,7.728.385,31.831,0,35.344Z" transform="translate(209.627 97.827)"/><path class="s" d="M6.466,7.764c-.519-.793-.046-1.109-.615-1.867C5.34,5.217,3.873,4.277,4.1,3.472,5.855-2.818-.719.411.065,5.473c.427,2.753,5.859,8.877,5.825,8.818h4.85Z" transform="translate(205.807 127.885)"/><path class="o" d="M5.258,2.043a6.91,6.91,0,0,1,10.108.321,27.11,27.11,0,0,1,4.775,8.372c4.442,11.571,7.1,21.476,7.1,21.476L3.749,42.643S-.439,18.8.038,13.657A18.39,18.39,0,0,1,5.258,2.043Z" transform="translate(136.35 122.856)"/><path class="m" d="M18.142,33.733S25.278,57.291,39.891,48.7C52.991,41,67.766,24.392,67.415,19.19S67.006,3.82,68.511,2.4C70.89.143,71-.267,78.11.138,84.289.489,92.486.2,90.5,6.39S84.947,21,81.791,24.331s-26.6,48.723-43.654,48.738C11.5,73.093,0,41.789,0,41.789Z" transform="translate(143.425 122.234)"/><path class="l" d="M29.4,10.636S55.576,35.707,45.407,32.376,0,4.325,0,4.325L5.2,0Z" transform="translate(255.546 334.388)"/><path class="t" d="M.015,1.267A1.38,1.38,0,0,0,1.1,2.878,1.38,1.38,0,0,0,2.59,1.623,1.38,1.38,0,0,0,1.5.011,1.379,1.379,0,0,0,.015,1.267Z" transform="translate(229.575 100.056)"/></g></svg>