<svg xmlns="http://www.w3.org/2000/svg" xmlns:xlink="http://www.w3.org/1999/xlink" width="677.423" height="799.145" viewBox="0 0 677.423 799.145"><defs><style>.a{fill:url(#a);}.b{fill:url(#b);}.c{fill:url(#c);}.d{fill:url(#e);}.e{fill:url(#f);}.f{fill:url(#g);}.g{fill:url(#h);}.h{fill:#d8bfff;}.i{fill:url(#k);}.j{fill:url(#p);}.k{fill:none;stroke:#fff;stroke-width:5px;}.l{fill:url(#q);}.m{fill:url(#r);}.n{fill:url(#u);}.o{fill:url(#w);}.p{fill:url(#aa);}.q{fill:url(#ab);}.r{fill:url(#ac);}.s{fill:url(#ad);}.t{fill:url(#ah);}</style><linearGradient id="a" x1="1.065" y1="0.382" x2="-0.109" y2="0.522" gradientUnits="objectBoundingBox"><stop offset="0" stop-color="#439e9f"/><stop offset="1" stop-color="#cbfefa"/></linearGradient><linearGradient id="b" x1="1.012" y1="0.327" x2="0.015" y2="0.577" gradientUnits="objectBoundingBox"><stop offset="0" stop-color="#bffdff"/><stop offset="1" stop-color="#68cacb"/></linearGradient><linearGradient id="c" y1="0.5" x2="1" y2="0.5" gradientUnits="objectBoundingBox"><stop offset="0" stop-color="#e9fff8"/><stop offset="1" stop-color="#d4fff0"/></linearGradient><linearGradient id="e" y1="0.5" x2="1" y2="0.5" gradientUnits="objectBoundingBox"><stop offset="0" stop-color="#d4fbff"/><stop offset="0.004" stop-color="#d4e9ff"/><stop offset="1" stop-color="#e9fffd"/></linearGradient><linearGradient id="f" x1="-0.024" y1="0.5" x2="1" y2="0.5" gradientUnits="objectBoundingBox"><stop offset="0" stop-color="#d8bfff"/><stop offset="1" stop-color="#eadefe"/></linearGradient><linearGradient id="g" x1="-0.062" y1="0.5" x2="0.971" y2="0.54" gradientUnits="objectBoundingBox"><stop offset="0" stop-color="#e7d8ff"/><stop offset="1" stop-color="#d8bfff"/></linearGradient><linearGradient id="h" x1="0.136" y1="0.5" x2="2.099" y2="0.874" gradientUnits="objectBoundingBox"><stop offset="0" stop-color="#ccb7e9"/><stop offset="1" stop-color="#a585d1"/></linearGradient><linearGradient id="k" y1="0.5" x2="1" y2="0.5" gradientUnits="objectBoundingBox"><stop offset="0" stop-color="#8a70b2" stop-opacity="0.502"/><stop offset="1" stop-color="#e9eaff"/></linearGradient><linearGradient id="p" y1="0.5" x2="1" y2="0.5" gradientUnits="objectBoundingBox"><stop offset="0" stop-color="#e4d7f9"/><stop offset="1" stop-color="#d8bfff"/></linearGradient><linearGradient id="q" x1="0.5" y1="0.743" x2="0" y2="0.307" gradientUnits="objectBoundingBox"><stop offset="0" stop-color="#e3d1ff"/><stop offset="1" stop-color="#eee4ff"/></linearGradient><linearGradient id="r" y1="0.5" x2="1" y2="0.5" gradientUnits="objectBoundingBox"><stop offset="0" stop-color="#dbbfff"/><stop offset="1" stop-color="#e9eaff"/></linearGradient><linearGradient id="u" x1="-0.444" y1="0.118" x2="0.935" y2="0.54" gradientUnits="objectBoundingBox"><stop offset="0" stop-color="#d8bfff"/><stop offset="1" stop-color="#a585d1"/></linearGradient><linearGradient id="w" y1="0.5" x2="1" y2="0.5" gradientUnits="objectBoundingBox"><stop offset="0" stop-color="#8ef2e4"/><stop offset="1" stop-color="#4a95d6"/></linearGradient><linearGradient id="aa" x1="0.063" y1="0.113" x2="0.891" y2="0.826" gradientUnits="objectBoundingBox"><stop offset="0" stop-color="#7e7e7e"/><stop offset="1" stop-color="#202121"/></linearGradient><linearGradient id="ab" y1="0.5" x2="1" y2="0.5" gradientUnits="objectBoundingBox"><stop offset="0" stop-color="#ffbfeb"/><stop offset="1" stop-color="#fff"/></linearGradient><linearGradient id="ac" y1="0.5" x2="1" y2="0.5" gradientUnits="objectBoundingBox"><stop offset="0" stop-color="#ffbfd4"/><stop offset="0.218" stop-color="#ff9acc"/><stop offset="0.699" stop-color="#ff3db7"/><stop offset="1" stop-color="#f0a"/></linearGradient><linearGradient id="ad" y1="0.5" x2="1" y2="0.5" gradientUnits="objectBoundingBox"><stop offset="0.016" stop-color="#5556ff"/><stop offset="0.606" stop-color="#b0b1ff"/><stop offset="1" stop-color="#e9eaff"/></linearGradient><linearGradient id="ah" x1="0.006" y1="0.562" x2="0.994" y2="0.439" gradientUnits="objectBoundingBox"><stop offset="0" stop-color="#ffbfd4"/><stop offset="0.085" stop-color="#ff94cb"/><stop offset="0.178" stop-color="#ff6dc2"/><stop offset="0.277" stop-color="#ff4bbb"/><stop offset="0.383" stop-color="#ff30b4"/><stop offset="0.497" stop-color="#ff1ab0"/><stop offset="0.624" stop-color="#ff0bad"/><stop offset="0.773" stop-color="#ff03ab"/><stop offset="1" stop-color="#f0a"/></linearGradient></defs><g transform="translate(-437.604 -28.549)"><path class="a" d="M0,2.681A16.69,16.69,0,0,1,7.377,16.667C7.267,26.151.057,36.651.057,36.651S14.413,31.16,21.55,20.561A28.457,28.457,0,0,0,26.129,3.4L3.924,0Z" transform="translate(1088.839 255.241)"/><path class="b" d="M.068,70.056l40.276,87.51,17.462-13.458S68.8,109.59,90.975,81.011C85.762,75.7,74.391,68.33,74.391,68.33a75.051,75.051,0,0,1,16.509-1.4c7.509.426,10.375,2.206,10.375,2.206,9.207-9.432,19.9-17.313,32.067-21.734A207.341,207.341,0,0,1,160.364,39.7c-1.3-5.557-9.33-15.985-9.33-15.985a51.835,51.835,0,0,1,13.589,3.145c7.593,2.711,16.423,9.286,16.423,9.286a268.551,268.551,0,0,1,56.07-1.539C235.487,33.265,174.789-15.369,85.24,4.961-5.534,25.563.068,70.056.068,70.056Z" transform="translate(877.823 224.029)"/><path class="c" d="M.667,102.724a.667.667,0,0,1-.56-1.03c.37-.57,37.523-57.364,83.371-84.657C129.449-10.329,174.9,3.453,175.355,3.6a.667.667,0,0,1-.4,1.274c-.45-.141-45.356-13.736-90.8,13.316C38.582,45.317,1.595,101.853,1.228,102.422A.672.672,0,0,1,.667,102.724Z" transform="translate(882.262 236.422)"/><path class="c" d="M.666,42.412a.667.667,0,0,1-.407-1.2A197,197,0,0,1,116.241.058c31.9-.764,54.009,6.3,54.229,6.369a.667.667,0,1,1-.413,1.269c-.218-.072-22.156-7.08-53.84-6.3A195.665,195.665,0,0,0,1.072,42.275.662.662,0,0,1,.666,42.412Z" transform="translate(918.574 313.63)"/><path class="d" d="M294.448.638c-44.105-2.374-89.731,1.8-131.385,13.748C88.351,35.808,27.493,92.655,7.025,168.418-15.068,250.2,17.16,343.464,72.788,405.271c52.089,57.874,126.329,91.042,202.98,99.906,70.65,8.169,163.632-.491,224.122-42.027,28.394-19.5,48.95-57.291,41.437-91.885C528.35,311.5,461.385,295.679,415.672,269.555c-18.336-10.478-43.482-29.731-43.262-53,.22-23.4,25.233-40.708,42.957-51.624,31.928-19.663,37.484-17.765,51.347-26.937,50.257-33.253,8.755-77.029-31.318-99.679-32.2-18.2-68.226-29.182-104.784-34.224C318.751,2.455,306.658,1.3,294.448.638Z" transform="translate(514.53 72.608)"/><path class="e" d="M161.451,38.163H19.081A19.081,19.081,0,0,1,0,19.081H0A19.082,19.082,0,0,1,19.081,0H161.451a19.082,19.082,0,0,1,19.081,19.081h0A19.082,19.082,0,0,1,161.451,38.163Z" transform="translate(437.604 167.654)"/><path class="f" d="M38.241,0l64.922,89.821L0,82.707,34.9,47.992Z" transform="translate(521.862 28.549)"/><path class="g" d="M73.737,49.286,0,12.9,5.477,7.456,5.995,0Z" transform="translate(551.288 69.085)"/><path class="g" d="M28.1,0,0,3.386,14.789,23.328,27.344,10.842Z" transform="translate(529.421 65.699)"/><path class="g" d="M0,0,27.344,7.456,14.789,19.942Z" transform="translate(529.421 69.085)"/><circle class="h" cx="34.46" cy="34.46" r="34.46" transform="matrix(0.23, -0.973, 0.973, 0.23, 877.828, 193.338)"/><path class="h" d="M139.565,12.674H3.649A3.649,3.649,0,0,1,0,9.025V3.649A3.649,3.649,0,0,1,3.649,0H139.565a3.649,3.649,0,0,1,3.649,3.649V9.025A3.649,3.649,0,0,1,139.565,12.674Z" transform="translate(727.197 150.608)"/><path class="h" d="M141.018,7.623H2.194A2.2,2.2,0,0,1,0,5.428V2.194A2.2,2.2,0,0,1,2.194,0H141.018a2.2,2.2,0,0,1,2.194,2.194V5.428A2.194,2.194,0,0,1,141.018,7.623Z" transform="translate(727.198 175.668)"/><rect class="i" width="300.592" height="2.668" transform="translate(561.437 251.461)"/><rect class="i" width="300.592" height="2.668" transform="translate(561.437 304.82)"/><rect class="i" width="300.592" height="2.668" transform="translate(561.437 358.18)"/><rect class="i" width="339.724" height="2.668" transform="translate(643.699 411.539)"/><rect class="i" width="339.724" height="2.668" transform="translate(643.699 464.899)"/><path class="j" d="M60.131,73.7H13.565A13.565,13.565,0,0,1,0,60.131V13.565A13.565,13.565,0,0,1,13.565,0H60.131A13.565,13.565,0,0,1,73.7,13.565V60.131A13.566,13.566,0,0,1,60.131,73.7Z" transform="translate(1020.57 429.384)"/><path class="k" d="M16.6,32.765.343,16.456A1.172,1.172,0,0,1,2,14.8L16.358,29.2,38.206.463a1.172,1.172,0,1,1,1.865,1.419Z" transform="translate(1037.332 450.196)"/><path class="l" d="M4.389,5.525S1.092,9.542.264,27.768s-.414,89.474,12.013,78.7S42.1,38.952,42.516,24.041,31.017,0,31.017,0Z" transform="translate(766.182 720.119)"/><path class="m" d="M5.01,18.329A57.964,57.964,0,0,0,1.666,55.583c7.8,30.862,72.48,152.075,72.925,161.857s3.335,46.467,12.9,33.349C98.808,235.256,101.715,219,96.38,190.76,76.121,83.556,46.133,76.482,55.471,54.693S82.6,0,82.6,0Z" transform="translate(699.839 524.347)"/><path class="m" d="M83.764,0S25.569,11.839,22.53,55.861c-3.5,50.753-4.349,165.294-10.08,171.862S0,243.286,0,243.286s26.235-1.778,32.016-7.114,14.007-13.118,14.007-13.118-7.114,1.889-3.447-18.454S53.908,106.791,67.32,64.087c5.143-16.378,73.639-31.571,73.639-31.571Z" transform="translate(572.998 441.585)"/><path class="m" d="M134.076,51.845S83.82,28.523,75.816,20.075,60.92-2.159,51.137.286,36.019,11.4,22.456,6.735-4.669-2.38,1.557,3.4s28.681,14.007,30.9,19.787,6.226,15.341,18.676,16.008,104.051,65.588,104.051,65.588L163.637,71.2Z" transform="translate(535.646 184.56)"/><path class="n" d="M59.1,0S-1.955,28.674.048,39.215c6.329,33.305,16.287,73.529,25.616,74.952,5.4.823,64.831-22.454,99.619-52.814S59.1,0,59.1,0Z" transform="translate(630.984 403.194)"/><path class="n" d="M43.117.448S35.165,30.686,18.712,50.7-9.3,76.93,10.263,84.934s86.265,32.9,88.933,20.454,7.559-37.93,20.009-50.758,21.344-20.389,16.9-39.508S43.117.448,43.117.448Z" transform="translate(689.908 455.865)"/><path class="o" d="M75.792,7.939s-21.325,1.22-36.884.5C28.937,7.971,8.449,0,8.449,0L0,43.132S21.122,56.694,45.134,58.695,75.792,7.939,75.792,7.939Z" transform="translate(686.832 247.322)"/><path class="o" d="M126.214,5.975s5.677,6.006,16.248,6.451,23.8-4,21.631,13.34-10.17,100.494-12.838,117.391,17.341,79.15,8.894,84.931S88.558,243.651,50.317,201.853-10.6,139.6,4.961,128.038A115.448,115.448,0,0,0,40.534,85.8c8-16.453,18.454-63.7,25.79-71.369s19.787-7,25.457-12.673S126.214,5.975,126.214,5.975Z" transform="translate(677.868 249.572)"/><path class="m" d="M9.126,27.174s1.313,3.731-2.688,16.181-12.228,35.129,0,34.906S45.123,52.916,47.568,43.578s-2-20.677,0-27.347,2-16.23,2-16.23Z" transform="translate(755.765 219.308)"/><path class="m" d="M12.94,16.9A101.449,101.449,0,0,0,.045,64.476C-.4,92.044,2.268,98.715,16.943,92.934s50.691-20.9,61.363-33.794,3.558-30.681,3.558-30.681L53.85,0Z" transform="translate(736.145 158.39)"/><path class="p" d="M13.41.784A.982.982,0,0,0,11.583.521C6.637,9.909-8.329,40.551,6.157,42.055c17.12,1.778,33.572-8,36.017,0s-6.88,17.98-3.891,26.013c2.668,7.17,8.783,8.449,6.892,3.78S49.4,58.564,55.4,60.565s9.171,11.506,4.335,15.841S44.011,86.564,46.564,97.916c3,13.34,7.972,22.717,11.14,18.548s4.367-13.046,13.2-18.048S93.2,83.3,95.086,66.733c2.373-20.794-1.818-39.585-19.121-50.692C63.237,7.87,52.468,5.486,40.392,8.482c-11.828,2.935-20.009,4.224-23.79-.89A18.507,18.507,0,0,1,13.41.784Z" transform="translate(746.263 136.567)"/><path class="q" d="M47.878,68.021c0,.213-.507.386-1.4.547-.733-6.683-6.964-52.533-8.578-64.458a3.227,3.227,0,0,0-3.242-2.774l-33.243.8A3.15,3.15,0,0,0,0,2.508,3.174,3.174,0,0,1,2.748.8L35.991,0a3.228,3.228,0,0,1,3.242,2.774C40.954,15.448,47.878,66.46,47.878,68.021Z" transform="translate(669.787 213.306)"/><path class="r" d="M46.847,67.233c-5.416,1-25.106,1.188-32.322,1.227a3.2,3.2,0,0,1-3.149-2.627L.052,3.228a3.155,3.155,0,0,1,.32-2.055A3.13,3.13,0,0,1,1.787.8L35.03,0a3.228,3.228,0,0,1,3.242,2.774C39.884,14.7,46.114,60.55,46.847,67.233Z" transform="translate(669.417 214.64)"/><path class="s" d="M8.131,14.77c.988-1.509.087-2.11,1.171-3.552.972-1.294,3.763-3.082,3.335-4.614C9.293-5.361,21.8.781,20.307,10.412,19.5,15.648,9.163,27.3,9.226,27.186H0Z" transform="translate(703.099 271.818)"/><path class="o" d="M41.817,3.886A13.144,13.144,0,0,0,22.59,4.5c-2.979,3.362-6.193,8.393-9.084,15.926C5.057,42.432,0,61.275,0,61.275L44.689,81.118s7.966-45.364,7.059-55.138C50.755,15.286,46.18,8.256,41.817,3.886Z" transform="translate(803.835 262.253)"/><path class="m" d="M138.218,64.17s-13.574,44.812-41.371,28.471C71.925,77.99,43.82,46.4,44.487,36.5S45.266,7.266,42.4,4.556C37.878.273,37.663-.507,24.144.262,12.39.93-3.2.373.577,12.156S11.138,39.947,17.141,46.284,67.748,138.967,100.182,139c50.68.045,72.547-59.5,72.547-59.5Z" transform="translate(669.469 261.069)"/><path class="l" d="M34.922,20.233s-49.8,47.69-30.459,41.353S90.839,8.226,90.839,8.226L80.945,0Z" transform="translate(538.076 664.639)"/><path class="t" d="M4.927,2.41A2.624,2.624,0,0,1,2.855,5.475,2.624,2.624,0,0,1,.029,3.086,2.624,2.624,0,0,1,2.1.021,2.623,2.623,0,0,1,4.927,2.41Z" transform="translate(673.361 218.88)"/></g></svg>