<svg xmlns="http://www.w3.org/2000/svg" width="25.621" height="25.621" viewBox="0 0 25.621 25.621"><defs><style>.a{opacity:0.24;}.b{fill:none;stroke:#1e1e1e;stroke-linecap:round;stroke-linejoin:round;stroke-width:3px;}</style></defs><g class="a" transform="translate(-3 -3)"><path class="b" d="M6.944,4.5H24.056A2.444,2.444,0,0,1,26.5,6.944V24.056A2.444,2.444,0,0,1,24.056,26.5H6.944A2.444,2.444,0,0,1,4.5,24.056V6.944A2.444,2.444,0,0,1,6.944,4.5Z"/><path class="b" d="M14.167,12.333A1.833,1.833,0,1,1,12.333,10.5,1.833,1.833,0,0,1,14.167,12.333Z" transform="translate(-1.111 -1.111)"/><path class="b" d="M27.056,21.111,20.944,15,7.5,28.444" transform="translate(-0.556 -1.944)"/></g></svg>