<svg xmlns="http://www.w3.org/2000/svg" width="22.472" height="22.472" viewBox="0 0 22.472 22.472"><defs><style>.a{fill:none;stroke:#9ba1b3;stroke-linecap:round;stroke-linejoin:round;stroke-width:2.5px;}</style></defs><g transform="translate(0.268 0.268)"><path class="a" d="M16.081,18a8.668,8.668,0,0,1-5.113,1.773c-6.025,0-9.468-6.886-9.468-6.886A15.881,15.881,0,0,1,5.855,7.773M9.161,6.207A7.85,7.85,0,0,1,10.968,6c6.025,0,9.468,6.886,9.468,6.886a15.924,15.924,0,0,1-1.859,2.746m-5.784-.921a2.582,2.582,0,1,1-3.65-3.65" transform="translate(0 -1.918)"/><path class="a" d="M1.5,1.5,20.436,20.436"/></g></svg>