<svg xmlns="http://www.w3.org/2000/svg" width="24" height="24" viewBox="0 0 24 24"><defs><style>.a{fill:#e91e63;}.b{fill:#00bcd4;}.c{fill:#4caf50;}.d{fill:#ff9800;}</style></defs><g transform="translate(-0.002 0.001)"><path class="a" d="M8.843,12.651a2.521,2.521,0,0,0-2.521,2.521v6.306a2.521,2.521,0,0,0,5.042,0V15.172a2.523,2.523,0,0,0-2.521-2.521Z"/><path class="a" d="M.019,15.172a2.523,2.523,0,0,0,5.046,0V12.649H2.542A2.524,2.524,0,0,0,.019,15.172Z"/><path class="b" d="M8.846,0h0a2.523,2.523,0,0,0,0,5.046h2.521V2.517A2.519,2.519,0,0,0,8.846,0Z"/><path class="b" d="M2.525,11.37H8.843a2.523,2.523,0,0,0,0-5.046H2.525a2.523,2.523,0,1,0,0,5.046Z"/><path class="c" d="M21.457,6.323a2.518,2.518,0,0,0-2.518,2.518v2.528H21.46a2.523,2.523,0,1,0,0-5.046Z"/><path class="c" d="M12.641,2.522V8.847a2.521,2.521,0,1,0,5.042,0V2.522a2.521,2.521,0,0,0-5.042,0Z"/><path class="d" d="M17.682,21.476a2.521,2.521,0,0,0-2.521-2.521H12.64v2.523a2.521,2.521,0,0,0,5.042,0Z"/><path class="d" d="M21.479,12.649H15.161a2.523,2.523,0,0,0,0,5.046h6.318a2.523,2.523,0,1,0,0-5.046Z"/></g></svg>