<svg xmlns="http://www.w3.org/2000/svg" width="300" height="230" stroke="#000" stroke-linecap="round" stroke-linejoin="round" fill="#fff" fill-rule="evenodd"><path fill="#4fc3f7" d="M134.944 10.5c-40.3903 40-81.286 10-90.374 30-18.1758 50 26.7585 140 90.374 165z" stroke="none"/><path fill="#0288d1" d="M135.5 10.5c40.93 40 81.862 10 90.958 30 18.1916 50-27.2874 140-90.958 165z" stroke-width="1.3307" stroke="#0288d1"/><g stroke="none"><path d="M135.4888 40.5l1.361 120-56.8136-15.5795q-4.313-1.2502-4.536-3.9108V92.1235c0-8.2332 7.688-14.8614 17.2374-14.8614a20.36 20.36 0 0 1 1.1091.03c-.2755-.2095-.5454-.4278-.8088-.655-6.7526-5.8217-6.7526-15.1954 0-21.017s17.6248-5.822 24.3773 0a16.637 16.637 0 0 1 .7597.697c-.023-.316-.0348-.6347-.0348-.956 0-8.2333 7.688-14.8614 17.349-14.861z" fill="#262626"/><path d="M135.4 40.5l-.1118 119.6153 55.6674-15.1948q4.5445 0 4.5445-3.9108V92.1235c0-8.2332-7.702-14.8614-17.2694-14.8614a20.436 20.436 0 0 0-1.1111.03 16.936 16.936 0 0 0 .8103-.655c6.7652-5.8217 6.7652-15.1954 0-21.017s-17.6575-5.822-24.4226 0a16.621 16.621 0 0 0-.761.697c.023-.316.0348-.6347.0348-.956 0-8.2332-7.7022-14.8614-17.381-14.861z" fill="#000"/><path d="M135.288 47.1504l-.223 47.762 52.166-2.789c0-4.55-4.2486-8.213-9.526-8.213-2.364 0-4.5215.735-6.1833 1.9555H152.587l13.389-11.5434c2.176-.15 4.3043-.9456 5.9758-2.3867 3.7317-3.2173 3.7317-8.3975 0-11.6148s-9.74-3.2173-13.4717 0c-1.6715 1.441-2.5943 3.2762-2.7684 5.1522L142.323 77.0166V60.692c1.4156-1.4327 2.268-3.293 2.268-5.33 0-4.4856-4.1293-8.1092-9.3028-8.2107z"/><path d="M135.7343 47.1504l-.223 47.762-52.1658-2.79c0-4.55 4.2486-8.2128 9.526-8.2128 2.364 0 4.5215.735 6.1833 1.9554h18.9345l-13.3888-11.5433c-2.176-.15-4.3044-.9456-5.9758-2.3868-3.7318-3.2173-3.7318-8.3975 0-11.6147s9.74-3.2174 13.4716 0c1.6715 1.441 2.5943 3.276 2.7683 5.152l13.39 11.5433V60.692c-1.4156-1.4327-2.268-3.2928-2.268-5.331 0-4.55 4.2486-8.213 9.526-8.213l.223.0022z"/></g><path d="M225.5 135.5v-10c-16.62 0-30 13.38-30 30v10h10v-10c0-11.08 8.92-20 20-20z" fill="#646464" stroke="#646464"/><path fill="#262626" d="M225.5 135.5v-10c16.62 0 30 13.38 30 30v10h-10v-10c0-11.08-8.92-20-20-20z" stroke="#262626"/><path fill="#ffae23" d="M225.5 220.5v-55h32c4.432 0 8 3.568 8 8v39c0 4.432-3.568 8-8 8z" stroke="#ffae23"/><path fill="#ffdc3e" d="M225.5 220.5v-55h-32c-4.432 0-8 3.568-8 8v39c0 4.432 3.568 8 8 8z" stroke="#ffdc3e"/><path d="M128.707 97.958l6.8043 26.9852 6.3506-26.9852h9.3l-11.3404 46.1485h-8.8455L119.6346 97.958h9.0723zm-27.6334 5.8982c-3.1754 0-6.3507 2.7376-6.3507 5.4753s2.9486 5.475 5.897 5.475c10.8868 0 16.3302 7.2352 16.3302 14.4704 0 6.453-6.8043 12.906-15.8765 12.906s-15.423-6.6486-15.423-13.297h8.6187c.4536 3.1287 3.63 5.8663 7.258 5.8663s6.8042-2.7376 6.8042-5.4752c0-3.91-3.1753-6.2575-7.7115-6.2575-7.7114 0-15.423-6.2574-15.423-14.0792 0-6.6485 6.8042-13.297 15.8766-13.297 9.9795 0 16.3302 6.844 16.3302 13.6882h-9.526c0-3.1288-3.402-5.4753-6.8042-5.4753zm75.2258 25.8118c0 2.542-3.1753 5.084-6.8042 5.084-4.0826 0-6.8043-2.933-6.8043-5.8663v-19.5545c0-3.5198 3.1753-5.4752 6.3506-5.4752 4.0826 0 6.8043 2.7376 6.8043 5.4752h9.526c0-6.6485-5.4434-13.297-16.3302-13.297-7.9382 0-15.423 5.4753-15.423 13.297v19.5545c0 7.4307 7.7115 13.297 15.8766 13.297 9.0722 0 15.8765-6.6485 15.8765-12.5148v-14.4704h-15.8765v7.822h6.8042z"/></svg>